<?xml version="1.0" encoding="UTF-8"?>
<svg id="Layer_1" data-name="Layer 1" xmlns="http://www.w3.org/2000/svg" viewBox="0 0 436.96 146.04">
  <defs>
    <style>
      .cls-1 {
        fill: none;
      }

      .cls-1, .cls-2, .cls-3, .cls-4 {
        stroke-width: 0px;
      }

      .cls-2 {
        fill: #5b483a;
      }

      .cls-3 {
        fill: #fff;
      }

      .cls-4 {
        fill: #e96b36;
      }
    </style>
  </defs>
  <rect class="cls-3" y=".61" width="133.77" height="145.43"/>
  <path class="cls-2" d="m34.9,48.52c-11.39-1.64-22.88-.34-34.56-1.02V.61h133.43v39.42c-4.26-12.07-10.36-23.85-21.96-31.43-6.7-4.38-14.47-6.6-22.52-7.31-9.77-.86-19.25.5-28.31,4.34-1.24.53-3.09.62-3.15,2.67-6.94,1.88-14.18-.11-21.13,1.47-2.03,5.32-2.14,10.74-2.96,16.56,10.31,1.82,20.3,2.93,30.39.24.96-5.41-1-10.38-.9-15.02-.68-1.86-2.3-1.96-3.14-2.98C76.99.4,93.72,1.22,109.68,10.62c7.44,4.38,13.68,10.57,16.9,19.08,1.7,4.5,3.63,8.92,5.33,13.42,1.47,3.89,2.24,7.87,2.22,12.13-.14,28.32-.06,56.65-.09,84.97,0,1.8.3,3.64-.38,5.75H.54c-.74-10.21-.37-20.44-.51-31.16,29.85-1.79,59.44-3.55,89.27-5.34.53-5.05.32-9.63.12-14.45-11.87-3.01-23.56-5.97-35.24-8.93-.08.3-.16.6-.24.89,9.56,2.53,19.12,5.06,28.69,7.59-.01.22-.03.44-.04.66-27.25,1.22-54.51,2.43-81.99,3.66-1.03-3.27-.45-6.66-.31-10.21,17.34-1.63,34.49-.91,51.3-2.22v-23.24c13.66,1.31,27.59,2.64,41.39,3.96-.33,13.21-.47,25.83-1.01,38.44-.38,8.82-.6,17.63-.7,26.45-.02,1.41-.27,2.62-1.27,3.64-1.32-.28-2.64-.66-4.22.17,1.66.6,2.95.38,4.24,0,4.33.81,8.54-.34,13.21-.55.99-22.95,1.97-45.66,2.98-68.87-18.3-4.08-36.82-3.36-55.29-5.51-1.12-2.99-.48-6.41-1.29-9.6-.24-.95-.08-2.05-1.44-2.24l.06.14c-4.36-1.83-8.88-.64-13.34-.72h-.01Zm27.65,89.08c-1.15,0-2.3,0-3.44,0-5.18-.66-10.24.73-15.38.95-9.2.4-18.38,1.39-28.14,2.18.9.32,1.2.51,1.51.52,13.31.27,26.47-2.06,39.75-2.27.76,0,1.51-.62,2.26-.95,1.15,0,2.3,0,3.44-.02,2.89.26,5.78.19,8.66-.25,1.08,1.6-.1,3.67,1.27,5.49,1.99,1.45,4.04.89,6.24-.45v-6.56c-2.7.19-5.17.36-7.63.53-2.9-.29-5.82-.76-8.54.85h0Z"/>
  <path class="cls-2" d="m198.85.21h13.22v71.34h-7.61V7.79l-1.07-.27c-7.77,21.28-15.55,42.56-23.36,63.96-2.91.57-5.69.26-8.95.23-7.85-21.26-15.69-42.51-23.54-63.77-.35.08-.71.17-1.06.25v63.35h-7.93V.46c4.29-.82,8.72-.16,13.65-.38,7.51,20.51,15.03,41.03,22.55,61.56h1.13c7.61-20.37,15.22-40.73,22.96-61.43h0Z"/>
  <path class="cls-2" d="m48.18,49.1c.68,11.92,1.35,23.84,2.05,36.1-16.74.28-33.12,1.68-49.86,1.08v-36.59c11.64-.58,23.12.39,34.55-.63,4.44.06,8.88.12,13.32.18,0,0-.06-.14-.06-.14Z"/>
  <path class="cls-2" d="m327.81,0c11.92.76,23.76-1.45,35.34,2.05,8.32,2.51,12.15,7.06,12.49,14.7.41,9.17-2.97,14.45-11.32,17.74-.3.12-.56.34-.83.52.06.29.07.79.2.83,8.02,2.25,11.04,7.94,10.76,15.79-.16,4.36.67,8.62.97,12.93.17,2.55,1.42,4.65,3.51,7.17-3.44.22-6.14.32-9.08-.11-3.17-6.29-3.41-13.2-3.44-19.89-.04-9.5-5.22-12.66-12.77-13.28-5.77-.47-11.58-.79-17.82-.1v33.16c-2.83.56-5.23.45-8,.15V0h-.01Zm7.98,32.55c6.4-.07,12.37.31,18.35-.29,2.53-.25,4.89-.99,7.09-2.21,5.08-2.82,7.01-7.3,6.18-14.06-.65-5.3-3.39-8.26-9.24-9.68-7.36-1.78-14.79-.62-22.38-.98v27.23h0Z"/>
  <path class="cls-2" d="m382.69,35.91c.29-6.44.15-13.25,2.45-19.83,3.34-9.6,10.63-15.33,20.7-15.86,2.82-.15,5.67-.18,8.48.04,9.97.77,17.51,6.37,20.02,15.94,3.42,13.05,3.53,26.35.09,39.42-2.51,9.54-9.75,14.97-19.49,15.8-4.16.36-8.37.58-12.45-.2-8.68-1.66-14.49-6.74-17.34-15.26-2.16-6.43-2.05-13.07-2.45-20.05h-.01Zm7.78.45c-.18,5.17.01,10.32,1.1,15.39,2.07,9.65,8.6,14.99,18.32,15.09,9.26.1,15.48-4.69,17.62-14.37,2.47-11.18,2.35-22.5-.33-33.64-2.07-8.58-8.02-13.29-16.24-13.69-10.56-.52-17.19,4.71-19.37,15.34-1.07,5.24-1.32,10.55-1.12,15.89h.02Z"/>
  <path class="cls-2" d="m263.14,71.66h-43.76V.48h42.65c.88,1.26.42,2.84.15,4.81h-34.57v26.03h31.04c1.12,1.88.5,3.35.77,5.32h-31.77v29.58h34.63c1.6,1.99.82,3.65.86,5.45h0Z"/>
  <path class="cls-4" d="m175.57,128.99c1.81-.57,3.89-.6,5.94.16.48,6.89-3.1,12.5-9.89,14.94-6.77,2.44-13.7,2.59-20.58.32-6.66-2.2-10.22-7.17-11.67-13.76-1.55-7.08-1.28-14.23.08-21.3,1.76-9.15,8.49-14.72,17.89-15.12,1.99-.09,4-.1,5.99-.03,11.41.43,18.52,7.47,19.04,18.87.08,1.82,0,3.66,0,6.03h-35.62c-.84,5.62-.97,10.66,1.29,15.47,2.53,5.39,7.87,7.77,15.19,7.03,6.42-.65,9.33-3.19,11.04-9.64.25-.95.18-2.01,1.29-2.97h0Zm-1.36-13.92c1.5-12.34-6.68-17.48-15.7-16.97-7.72.44-13.59,9.3-11.72,16.97h27.43-.01Z"/>
  <path class="cls-4" d="m294.34,129.37c-.67,7.76-4.35,12.7-11.49,14.97-5.84,1.86-11.75,2.02-17.7.62-6.99-1.65-11.54-6.14-13.12-12.97-1.93-8.32-2.03-16.83.37-25.13,1.86-6.43,6.33-10.42,12.85-11.99,4.76-1.15,9.63-1.19,14.37-.23,8.93,1.82,14.11,7.96,14.81,17.04.18,2.31.03,4.64.03,7.49h-35.17c-2.7,11.59,1.83,19.99,7.89,21.63,4.63,1.25,9.2,1.31,13.66-.62,4.82-2.09,5.11-7.01,6.64-11.09,2.26-.68,4.35-.66,6.87.28h-.01Zm-8.15-14.31c2-10.53-5.23-16.6-12.26-16.95-9.68-.47-15.73,6.25-15.28,16.95h27.54Z"/>
  <path class="cls-2" d="m269.29,5.49c-.72-2.07-.64-3.36-.31-5.03h51.25c.68,1.4.48,2.94-.03,4.9h-21.31v66.16c-2.92.54-5.32.49-8.26.02V5.49h-21.34Z"/>
  <path class="cls-4" d="m224.66,129.25c2-.9,3.52-.64,5.01-.66.82,0,1.67,0,2.31.68-.19,7.63-3.72,12.68-10.69,15.02-7.2,2.42-14.45,2.31-21.57-.22-6.16-2.19-9.85-6.86-11.05-13.15-1.48-7.74-1.59-15.53.57-23.24,1.76-6.27,5.67-10.56,11.91-12.32,7.4-2.08,14.85-2.2,21.9,1.35,4.85,2.44,8.04,6.27,8.34,12.11-2.28.97-4.42.51-6.56.48-.34-.45-.8-.79-.9-1.21-2.14-9.47-11.02-11.29-19.05-9.17-3.92,1.04-6.61,3.67-7.86,7.67-2.62,8.33-2.61,16.82-.4,25.09,2.38,8.92,13.92,13.09,22.02,8.49,4.24-2.4,5.04-6.76,6.01-10.93h.01Z"/>
  <path class="cls-4" d="m428.65,128.72c2.71-.08,4.99-.59,7.17.35.28,9.06-5.91,14.85-14.5,16.25-1.48.24-2.96.59-4.45.61-16.13.22-24.03-5.52-25.21-20.85-.48-6.2-.23-12.31,1.67-18.24,1.72-5.36,5.13-9.32,10.6-11.1,7.34-2.38,14.74-2.58,21.93.49,5.39,2.3,8.86,6.28,9.5,12.54-2.32,1.19-4.58.51-6.9.47-.33-.67-.69-1.23-.9-1.84-2.18-6.4-6.25-9.31-13.09-9.31-7.33,0-12.29,3.15-14.02,9.6-2.01,7.49-2,15.28-.39,22.74,2.12,9.84,12.98,14.36,22.1,9.87,2.68-1.32,4.36-3.53,5.16-6.39.44-1.59.82-3.21,1.32-5.18h0Z"/>
  <path class="cls-4" d="m337.5,128.86c2.1-.49,4.2-.52,6.28.06.97,6.79-2.97,12.92-9.87,15.24-6.81,2.29-13.69,2.42-20.59.35-6.44-1.93-10.56-6.09-12.04-12.69-1.73-7.73-1.83-15.53-.05-23.23,1.63-7.05,6.04-11.82,13.19-13.49,7.27-1.7,14.52-1.77,21.36,1.9,5.1,2.74,7.37,6.4,7.42,11.94-2.06.85-4.17.48-6.3.26-1.41-1.76-1.4-4.08-2.73-5.84-3.67-4.87-8.68-5.74-14.26-5.06-5.04.61-8.91,3.11-10.53,7.95-2.97,8.92-2.97,18.05-.02,26.93,2.13,6.4,7.71,9.07,15.81,8.46,6.43-.49,9.51-3.27,11.12-10.07.19-.81.23-1.65,1.22-2.71h-.01Z"/>
  <path class="cls-4" d="m360.81,138.84c3.77,3.33,7.03,2.04,9.81,2.81.97,1.1.89,2.12-.11,3.5-3.89.23-7.96.92-12.03-.65-4.12-1.59-5.24-2.93-5.26-7.37-.06-10.66,0-21.32-.05-31.98,0-1.78.53-3.69-.81-5.28-1.68-1.07-3.62-.21-5.4-.79-1.12-.85-.74-2.01-.55-3.17,1.84-1.47,4.29.1,6.73-1.55v-13.41c2.61-.81,4.66-.7,7.36-.12v13.75c3.66,1.25,6.88.23,9.94.9,1.22.84.91,1.98.59,3.29-3.1,1.35-6.53-.02-10.57,1.08.17,13.11-.39,26.45.34,39.01v-.02Z"/>
  <path class="cls-4" d="m60.1,8.57c.84,1.02,2.46,1.12,3.14,2.98-.1,4.64,1.86,9.61.9,15.02-10.08,2.7-20.08,1.58-30.39-.24.81-5.81.93-11.23,2.96-16.56,6.94-1.59,14.19.41,21.13-1.47.76.09,1.51.18,2.27.27h0Z"/>
  <path class="cls-4" d="m237.63,77.67c2.61-.61,4.72-.42,7.15-.16v66.2c-1.1,1.04-2.32.69-3.44.71-1.14.02-2.32.23-3.71-.51v-66.25h0Z"/>
  <path class="cls-4" d="m385.16,95.43v48.72c-2.36.47-4.43.38-6.81.07v-48.47c2.13-.84,4.24-.48,6.81-.31h0Z"/>
  <path class="cls-4" d="m377.67,77.54c3.01-.36,5.48-.46,8.15.04.94,2.37.59,4.75.28,7.34-2.78.77-5.38.24-8.06.4-1.04-2.65-.7-5.04-.36-7.79h-.01Z"/>
  <path class="cls-1" d="m48.23,49.24c-4.44-.06-8.88-.12-13.32-.18l-.19-.26.17-.28c4.46.08,8.98-1.1,13.34.72Z"/>
  <path class="cls-1" d="m90.01,135.87c-1.29.39-2.58.61-4.24,0,1.59-.83,2.91-.45,4.22-.17l.02.16Z"/>
  <path class="cls-1" d="m59.1,138.01c-.75.33-1.5.94-2.26.95-13.28.21-26.44,2.54-39.75,2.27-.31,0-.61-.2-1.51-.52,9.76-.79,18.94-1.77,28.14-2.18,5.14-.23,10.2-1.61,15.38-.95l.14.21-.14.21h0Z"/>
  <path class="cls-1" d="m71.09,136.75c.1.22.24.43.3.67.02.09-.11.22-.18.33-2.88.43-5.76.5-8.66.25v-.39c2.71-1.61,5.63-1.14,8.54-.85h0Z"/>
</svg>